<?xml version="1.0" standalone="no"?>
<!DOCTYPE svg PUBLIC "-//W3C//DTD SVG 20010904//EN"
 "http://www.w3.org/TR/2001/REC-SVG-20010904/DTD/svg10.dtd">
<svg version="1.0" xmlns="http://www.w3.org/2000/svg"
 width="1269.000000pt" height="431.000000pt" viewBox="0 0 1269.000000 431.000000"
 preserveAspectRatio="xMidYMid meet">

<g transform="translate(0.000000,431.000000) scale(0.100000,-0.100000)"
fill="#000000" stroke="none">
<path d="M0 2155 l0 -2155 2998 1 c1703 1 2950 5 2887 10 -2512 191 -4652
1809 -5510 4167 l-48 132 -164 0 -163 0 0 -2155z"/>
<path d="M12316 4179 c-458 -1270 -1327 -2375 -2456 -3124 -912 -604 -1956
-961 -3055 -1044 -62 -5 1205 -9 2888 -10 l2997 -1 0 2155 0 2155 -164 0 -163
0 -47 -131z"/>
</g>
</svg>
