<?xml version="1.0" standalone="no"?>
<!DOCTYPE svg PUBLIC "-//W3C//DTD SVG 20010904//EN"
 "http://www.w3.org/TR/2001/REC-SVG-20010904/DTD/svg10.dtd">
<svg version="1.0" xmlns="http://www.w3.org/2000/svg"
 width="431.000000pt" height="1269.000000pt" viewBox="0 0 431.000000 1269.000000"
 preserveAspectRatio="xMidYMid meet">

<g transform="translate(0.000000,1269.000000) scale(0.100000,-0.100000)"
fill="#000000" stroke="none">
<path d="M1 9693 c1 -1704 5 -2951 10 -2888 191 2512 1809 4652 4167 5510
l132 48 0 164 0 163 -2155 0 -2155 0 1 -2997z"/>
<path d="M1 2998 l-1 -2998 2155 0 2155 0 0 164 0 163 -131 47 c-1270 458
-2375 1327 -3124 2456 -604 912 -961 1956 -1044 3055 -5 62 -9 -1205 -10
-2887z"/>
</g>
</svg>
